<svg id="Rear" xmlns="http://www.w3.org/2000/svg" viewBox="0 0 743.52 772.71">
  <defs>
    <style>.cls-1{
      fill:none;
      stroke:var(--foreground-color);
      stroke-miterlimit:10;
      stroke-width:2;
      stroke-linecap:round;
    }</style>
  </defs>
  <rect class="cls-1" x="44.67" y="115.11" width="142.77" height="202.38" />
  <polygon class="cls-1" points="462.13 115.11 360.55 115.11 280.39 115.11 280.39 189.71 280.39 317.49 360.55 317.49 360.55 189.71 462.13 189.71 462.13 115.11" />
  <path class="cls-1" d="M320.47,357.57a40.08,40.08,0,0,0,40.08-40.08H280.39A40.07,40.07,0,0,0,320.47,357.57Z" />
  <path class="cls-1" d="M187.45,115.11V317.49H159.36a40.08,40.08,0,0,0,80.16,0V115.11Z" />
  <rect class="cls-1" x="44.67" y="4" width="403.97" height="56.35" />
  <path class="cls-1" d="M44.67,276.82a40.68,40.68,0,1,0,40.68,40.67H44.67Z" />
  <polygon class="cls-1" points="483.4 317.49 595.31 341.65 584.99 385.3 475.47 358.17 483.4 317.49" />
  <polygon class="cls-1" points="525.47 460.7 548.56 376.27 568.74 381.27 547.1 464.67 525.47 460.7" />
  <polygon class="cls-1" points="568.74 470.22 584.99 385.3 568.74 381.27 547.1 464.67 568.74 470.22" />
  <polygon class="cls-1" points="728.64 317.49 595.31 341.65 584.99 385.3 568.74 470.22 692.93 505.14 728.64 317.49" />
  <path class="cls-1" d="M535.39,134.51c.88,15.89,4.36,56.35-6.75,68.25S489,266,488.17,276.82s-4.77,40.67-4.77,40.67l111.91,24.16,133.33-24.16s16.67-182.19,8.73-208.38-53.17-50.7-81-48.76S553.66,73.4,547.1,89.27,534.12,111.52,535.39,134.51Z" />
  <polygon class="cls-1" points="549.17 533.13 531.82 524.98 521.5 557.52 538.32 567.1 549.17 533.13" />
  <polygon class="cls-1" points="514.36 519.43 531.82 524.98 521.5 557.52 504.04 551.17 514.36 519.43" />
  <path class="cls-1" d="M535.39,758.4c-41.59-13.51-132-58.28-160.69-56.59S317.27,668.87,313,639.3s8.86-65.85,47.51-72.2,84.28,10.54,101.58,4.63,24.45-26.9,41.91-20.56l17.46,6.35,16.82,9.58-24,69.79,134.33,52.38s-28.12,77.58-45.05,79.27S535.39,758.4,535.39,758.4Z" />
  <path class="cls-1" d="M547.1,464.67l-21.63-4c-15.9,2.91-27.72,30.5-24.35,41.2s13.24,17.53,13.24,17.53L531.82,525l17.35,8.15,19.57-62.91-27.4,88.1-27,78.57,134.33,52.38,44.24-184.13" />
  <path class="cls-1" d="M44.67,358.17c-1.08,19.28-.24,61.52,51.29,89.39s182.45,28.72,207.79,43.08S402,566.73,418.52,569.13" />
  <path class="cls-1" d="M239.52,115.11c22.84.49,40.87,0,40.87,0" />
  <path class="cls-1" d="M462.13,115.11c41.81-14.71,72-16.85,78.47-11.56" />
</svg>