<svg xmlns="http://www.w3.org/2000/svg" viewBox="0 0 444.04 319.88">
  <defs>
    <style>.cls-1{
      fill:none;
      stroke:var(--foreground-color);
      stroke-miterlimit:10;
      stroke-width:2;
      stroke-linecap:round;
    }</style>
  </defs>
  <g id="Side">
    <rect class="cls-1" x="20.61" y="81.4" width="304.65" height="234.48" />
    <path class="cls-1" d="M325.26,108.94H77a48.59,48.59,0,0,1-10.89,30.22c-13,15.92-45.72,14-45.52,9.48" />
    <path class="cls-1" d="M20.61,81.4S1.94,52.06,4.19,35.92c0,0-.38-14.64,22.52-21.4S148,2.51,166,4.38,273.36,32.16,295.51,32.54s52.93-.7,78.46,10.16S427.28,84,440,84.72l-25.15,53.69-89.63-57" />
    <path class="cls-1" d="M325.26,256.29c-20-5.26-75.18-19.15-96.57-8.26s-30.41,55.75-25.91,67.85" />
  </g>
</svg>