<?xml version="1.0" standalone="no"?>
<!DOCTYPE svg PUBLIC "-//W3C//DTD SVG 20010904//EN"
 "http://www.w3.org/TR/2001/REC-SVG-20010904/DTD/svg10.dtd">
<svg version="1.0" xmlns="http://www.w3.org/2000/svg"
 width="1052.000000pt" height="1052.000000pt" viewBox="0 0 1052.000000 1052.000000"
 preserveAspectRatio="xMidYMid meet">
<metadata>
Created by potrace 1.11, written by Peter Selinger 2001-2013
</metadata>
<g transform="translate(0.000000,1052.000000) scale(0.100000,-0.100000)"
fill="#000000" stroke="none">
<path d="M8786 9702 c-3 -2 -33 -6 -68 -8 -73 -4 -150 -11 -204 -19 -22 -3
-54 -8 -71 -10 -18 -3 -48 -7 -65 -10 -18 -3 -46 -7 -63 -10 -16 -2 -41 -6
-55 -9 -14 -3 -47 -10 -75 -16 -27 -5 -61 -12 -75 -15 -14 -3 -36 -8 -50 -11
-14 -2 -32 -7 -40 -10 -8 -3 -26 -8 -40 -11 -35 -7 -39 -8 -90 -22 -25 -7 -52
-15 -60 -16 -15 -4 -50 -16 -123 -42 -21 -7 -43 -11 -48 -8 -5 4 -9 1 -9 -4 0
-6 -9 -11 -19 -11 -11 0 -22 -4 -25 -9 -3 -4 -20 -11 -38 -15 -38 -7 -227 -83
-245 -98 -7 -6 -13 -7 -13 -4 0 4 -17 -2 -37 -12 -71 -37 -178 -86 -192 -88
-8 -2 -17 -8 -21 -14 -4 -6 -14 -12 -22 -14 -9 -1 -22 -6 -29 -12 -8 -5 -34
-20 -59 -33 -25 -13 -51 -29 -59 -35 -7 -5 -20 -11 -29 -13 -9 -1 -18 -7 -20
-12 -2 -6 -8 -11 -12 -11 -11 0 -143 -81 -151 -93 -3 -5 -10 -8 -15 -8 -5 1
-16 -4 -24 -11 -9 -7 -58 -42 -110 -77 -52 -36 -107 -74 -121 -85 -14 -12 -38
-30 -53 -41 -16 -11 -33 -25 -40 -30 -6 -6 -33 -28 -61 -50 -27 -22 -55 -45
-61 -50 -6 -6 -40 -35 -75 -65 -147 -127 -391 -384 -523 -550 -20 -25 -42 -52
-49 -59 -6 -8 -29 -38 -49 -65 -21 -28 -42 -56 -48 -63 -5 -7 -10 -16 -10 -22
0 -5 -7 -11 -15 -15 -8 -3 -15 -12 -15 -20 0 -8 -4 -16 -8 -18 -10 -4 -107
-151 -103 -157 1 -2 -1 -7 -7 -10 -10 -6 -107 -165 -117 -192 -3 -8 2 -24 12
-36 10 -11 39 -44 65 -74 78 -90 89 -103 111 -132 12 -16 29 -36 38 -45 27
-29 169 -223 169 -232 0 -5 4 -10 9 -12 11 -4 201 -294 201 -308 0 -5 5 -10
10 -10 6 0 10 -6 11 -12 0 -7 14 -33 30 -58 16 -25 33 -54 38 -66 5 -11 30
-58 56 -105 26 -46 48 -88 50 -94 1 -5 28 -64 60 -130 55 -116 193 -450 185
-450 -1 0 5 -18 13 -40 16 -42 23 -63 27 -80 1 -5 8 -26 15 -45 8 -19 23 -69
35 -110 34 -118 41 -131 59 -126 9 3 34 7 57 10 22 2 56 7 75 10 19 3 52 8 74
12 69 10 89 13 115 19 14 3 39 8 55 10 17 2 71 13 120 25 101 23 102 23 165
40 25 7 54 14 65 16 27 5 194 59 280 92 39 15 75 27 80 28 6 0 21 6 35 11 14
6 66 28 115 48 159 66 435 206 570 288 11 7 44 27 75 46 30 18 57 36 60 40 3
3 22 15 43 26 20 11 37 22 37 26 0 3 11 11 24 17 28 12 149 103 154 114 2 5
10 8 17 8 7 0 15 3 17 8 2 4 37 34 78 66 41 33 77 62 80 65 3 4 37 33 75 66
83 71 352 339 412 411 24 28 53 62 65 76 13 14 48 57 78 96 30 40 59 72 64 72
5 0 7 3 3 6 -5 6 10 28 46 66 9 10 14 18 10 18 -3 0 3 10 14 23 31 34 153 221
217 332 31 55 64 111 72 125 8 14 31 59 52 100 20 41 41 78 45 81 5 3 7 8 6
10 -2 2 12 36 30 74 49 106 57 125 82 190 13 33 26 65 30 70 3 6 16 42 29 80
12 39 28 84 35 100 7 17 18 49 24 72 6 23 20 70 31 104 11 34 22 72 25 83 2
12 12 50 21 86 9 36 18 74 20 85 8 44 26 121 31 135 3 8 7 31 8 50 2 19 6 46
9 60 14 60 26 152 21 161 -4 5 -3 9 2 9 4 0 9 12 10 28 1 15 4 52 7 82 9 81
16 184 20 282 2 48 7 91 10 97 4 5 2 12 -3 15 -5 4 -7 18 -5 32 3 15 6 32 7
38 1 8 -210 11 -785 12 -433 1 -790 -1 -792 -4z"/>
<path d="M125 8430 c-5 -7 3 -294 9 -350 2 -25 8 -79 11 -120 4 -41 9 -86 11
-100 2 -14 6 -43 8 -65 3 -22 8 -51 10 -65 3 -14 8 -45 11 -70 3 -25 8 -53 11
-62 3 -9 7 -27 9 -40 3 -13 7 -34 10 -48 3 -14 7 -34 9 -45 3 -11 12 -49 21
-85 9 -36 18 -74 20 -85 3 -11 14 -51 26 -90 11 -38 22 -74 23 -80 1 -5 11
-37 21 -70 11 -33 19 -62 20 -65 1 -3 9 -23 18 -44 10 -22 15 -41 12 -44 -2
-2 2 -14 10 -26 8 -11 15 -28 15 -38 0 -10 5 -18 11 -18 5 0 8 -4 5 -8 -3 -5
0 -19 7 -33 7 -13 28 -62 47 -109 40 -100 221 -461 240 -480 3 -3 14 -22 25
-42 11 -21 23 -38 27 -38 5 0 8 -6 8 -13 0 -7 16 -36 35 -64 19 -29 35 -57 35
-62 0 -5 3 -11 8 -13 11 -5 82 -107 82 -118 0 -6 4 -10 10 -10 5 0 16 -13 25
-29 8 -16 20 -35 28 -43 7 -7 28 -34 47 -60 18 -27 37 -48 41 -48 4 0 10 -8
14 -17 3 -10 22 -37 43 -59 20 -23 57 -66 82 -95 104 -125 394 -404 544 -524
21 -16 43 -35 50 -41 14 -13 236 -175 258 -189 10 -5 34 -22 55 -36 65 -44
146 -95 193 -120 25 -13 47 -26 50 -29 30 -30 381 -200 550 -267 36 -14 79
-31 95 -38 17 -7 48 -18 70 -25 22 -7 46 -17 53 -23 6 -5 12 -7 12 -3 0 4 14
0 30 -9 17 -9 30 -13 30 -11 0 3 19 -1 41 -10 23 -8 51 -16 63 -19 12 -2 53
-14 91 -25 69 -21 84 -25 137 -34 15 -2 31 -7 36 -10 5 -3 22 -8 38 -10 16 -3
40 -8 54 -11 51 -11 307 -54 360 -60 30 -3 69 -9 85 -11 17 -3 71 -7 120 -9
50 -2 90 -5 90 -6 0 -1 107 -7 197 -9 65 -2 66 -3 70 -32 3 -16 2 -31 -1 -32
-3 -2 -4 -41 -1 -85 3 -45 2 -90 -1 -99 -4 -9 -3 -26 1 -37 4 -11 4 -29 0 -40
-4 -11 -4 -30 1 -42 5 -13 4 -25 -2 -29 -6 -4 -6 -11 2 -20 6 -8 7 -14 2 -14
-7 0 -8 -15 -3 -40 5 -25 4 -40 -3 -40 -5 0 -5 -5 2 -13 6 -8 8 -17 4 -20 -7
-8 -7 -116 0 -124 3 -2 2 -17 -2 -31 -4 -15 -4 -39 0 -54 4 -16 4 -30 0 -32
-4 -3 -5 -28 -1 -56 4 -27 4 -50 0 -50 -4 0 -4 -22 0 -50 4 -29 2 -50 -3 -50
-5 0 -4 -6 2 -14 7 -8 8 -17 3 -20 -5 -3 -6 -27 -2 -54 3 -27 3 -60 -1 -74 -4
-14 -3 -31 1 -38 4 -7 4 -25 0 -40 -4 -15 -4 -33 0 -40 4 -7 4 -25 0 -40 -4
-15 -4 -33 0 -40 4 -7 4 -25 0 -40 -4 -15 -4 -33 0 -40 4 -7 4 -25 0 -40 -4
-15 -4 -33 0 -40 4 -7 4 -25 0 -40 -4 -15 -4 -33 0 -40 4 -7 4 -25 0 -40 -4
-15 -4 -33 0 -40 4 -7 4 -24 0 -39 -4 -14 -6 -35 -4 -46 6 -35 7 -126 1 -131
-3 -3 -1 -19 3 -35 6 -19 5 -29 -2 -29 -7 0 -7 -4 1 -13 6 -8 8 -17 4 -20 -7
-8 -7 -116 0 -124 3 -2 2 -17 -2 -31 -4 -15 -4 -39 0 -54 4 -16 4 -30 0 -32
-4 -3 -5 -28 -1 -56 4 -27 4 -50 0 -50 -4 0 -4 -22 0 -50 4 -29 2 -50 -3 -50
-5 0 -4 -6 2 -13 6 -8 8 -17 4 -20 -7 -8 -7 -116 0 -124 3 -2 2 -17 -2 -31 -4
-15 -4 -39 0 -54 4 -16 4 -30 0 -32 -4 -3 -5 -28 -1 -56 4 -27 4 -50 0 -50 -4
0 -4 -23 0 -50 4 -28 3 -53 -2 -56 -4 -3 -4 -13 1 -22 5 -9 19 -40 31 -68 37
-84 105 -149 190 -178 38 -13 103 -15 435 -13 388 2 390 2 436 26 26 13 62 37
81 55 39 35 84 96 71 96 -4 0 -2 4 5 8 15 10 24 44 26 99 0 24 5 43 10 43 5 0
4 6 -2 13 -7 8 -7 18 -2 27 5 9 5 19 -1 27 -7 8 -7 19 1 33 8 14 8 25 1 33 -6
8 -6 18 -1 27 5 9 5 19 -1 27 -7 8 -7 19 1 33 8 14 8 25 1 33 -6 8 -6 18 -1
27 5 9 5 19 -2 27 -7 9 -7 13 2 13 9 0 9 4 2 13 -7 8 -7 18 -2 27 5 9 5 19 -2
27 -7 9 -7 13 2 13 9 0 9 4 2 13 -7 8 -7 18 -2 27 5 9 5 19 -1 27 -7 8 -7 19
1 33 8 14 8 25 1 33 -6 8 -6 18 -1 27 5 9 5 19 -1 27 -7 8 -7 18 1 32 7 15 7
21 0 21 -7 0 -7 6 0 21 8 14 8 24 1 32 -6 8 -6 18 -1 27 5 9 5 19 -1 27 -7 8
-7 18 1 32 7 15 7 21 0 21 -7 0 -7 6 0 21 8 14 8 24 1 32 -6 8 -6 18 -1 27 5
9 5 19 -1 27 -7 8 -7 18 1 32 7 15 7 21 0 21 -7 0 -7 6 0 21 8 14 8 24 1 32
-6 8 -6 18 -1 27 5 9 5 19 -1 27 -7 8 -7 19 1 33 8 14 8 25 1 33 -6 8 -6 18
-1 27 5 9 5 19 -1 27 -7 8 -7 19 1 33 8 14 8 25 1 33 -6 8 -6 18 -1 27 5 9 5
19 -1 27 -7 8 -7 19 1 33 8 14 8 25 1 33 -6 8 -6 18 -1 27 5 9 5 19 -2 27 -7
9 -7 13 2 13 9 0 9 4 2 13 -7 8 -7 18 -2 27 5 9 5 19 -2 27 -7 9 -7 13 2 13 9
0 9 4 2 13 -7 8 -7 18 -2 27 5 9 5 19 -2 27 -7 9 -7 13 2 13 9 0 9 4 2 13 -7
8 -7 18 -2 27 5 9 5 19 -1 27 -7 8 -7 19 1 33 8 14 8 25 1 33 -6 8 -6 18 -1
27 5 9 5 19 -1 27 -7 8 -7 19 1 33 8 14 8 25 1 33 -6 8 -6 18 -1 27 5 9 5 19
-2 27 -7 9 -7 13 2 13 9 0 9 4 2 13 -7 8 -7 18 -2 27 5 9 5 19 -2 27 -7 9 -7
13 2 13 9 0 9 4 2 13 -7 8 -7 18 -2 27 5 9 5 19 -2 27 -7 9 -7 13 2 13 9 0 9
4 2 13 -7 8 -7 18 -2 27 5 9 5 19 -1 27 -7 8 -7 19 1 33 8 14 8 25 1 33 -6 8
-6 18 -1 27 5 9 5 19 -1 27 -7 8 -7 19 1 33 8 14 8 25 1 33 -6 8 -6 18 -1 27
5 9 5 19 -1 27 -7 8 -7 19 1 33 8 14 8 25 1 33 -6 8 -6 18 -1 27 5 9 5 19 -1
27 -7 8 -7 18 1 32 7 15 7 21 0 21 -7 0 -7 6 0 21 8 14 8 24 1 32 -6 8 -6 18
-1 27 5 9 5 19 -1 27 -7 8 -7 18 1 32 7 15 7 21 0 21 -7 0 -7 6 0 21 8 14 8
24 1 32 -6 8 -6 18 -1 27 5 9 5 19 -1 27 -7 8 -7 18 1 32 6 12 7 21 2 21 -5 0
-6 17 -2 40 4 22 4 38 1 36 -3 -2 -6 44 -7 102 -1 59 -4 136 -8 172 -4 36 -9
90 -12 120 -2 30 -7 71 -10 90 -2 19 -7 53 -10 75 -3 22 -14 87 -25 145 -11
58 -22 116 -24 130 -3 14 -9 45 -15 70 -6 25 -13 58 -15 73 -3 15 -9 37 -15
47 -6 11 -9 20 -6 20 3 0 0 15 -5 33 -13 39 -38 127 -44 147 -16 63 -104 309
-130 367 -8 17 -15 34 -15 37 0 9 -33 81 -103 226 -34 69 -61 127 -62 130 0 3
-11 21 -23 40 -12 19 -22 38 -22 43 0 4 -25 47 -55 96 -30 49 -55 92 -55 95 0
4 -4 12 -10 19 -5 7 -44 63 -86 126 -77 114 -228 318 -281 377 -15 18 -46 53
-68 79 -22 26 -62 70 -88 99 -124 130 -148 156 -151 156 -2 0 -32 28 -68 63
-35 34 -91 85 -123 112 -32 28 -65 57 -74 65 -9 8 -35 28 -56 44 -22 17 -42
33 -45 36 -6 7 -165 126 -200 150 -12 8 -28 21 -36 28 -7 6 -17 12 -21 12 -5
0 -18 8 -29 18 -11 9 -29 22 -40 29 -154 94 -208 126 -254 153 -70 39 -410
206 -440 215 -3 1 -16 6 -30 12 -41 18 -85 36 -90 38 -3 1 -13 5 -22 8 -10 4
-26 10 -35 14 -10 3 -21 7 -25 8 -5 2 -11 4 -15 5 -5 1 -11 2 -15 1 -5 0 -8 4
-8 11 0 6 -3 9 -6 6 -3 -3 -29 3 -57 14 -29 10 -59 21 -67 23 -8 2 -69 19
-135 39 -66 19 -140 40 -165 46 -25 6 -54 13 -65 16 -11 3 -31 7 -45 9 -14 2
-59 11 -100 20 -41 8 -104 20 -140 26 -36 5 -76 12 -90 14 -14 2 -47 7 -75 10
-120 13 -142 16 -185 21 -25 3 -378 8 -785 10 -407 2 -769 5 -803 7 -35 1 -65
0 -67 -3z"/>
</g>
</svg>
